# MagicaVoxel @ Ephtracy

# material
mtllib robotejo.mtl
usemtl palette

# normals
vn -1 0 0
vn 1 0 0
vn 0 0 1
vn 0 0 -1
vn 0 -1 0
vn 0 1 0

# texcoords
vt 0.970703 0.5
vt 0.974609 0.5
vt 0.978516 0.5
vt 0.982422 0.5

# verts
v -4.5 2 0.5
v -4.5 2 -0.5
v -4.5 3 0.5
v -4.5 3 -0.5
v -4.5 5 0.5
v -4.5 5 -0.5
v -4.5 6 0.5
v -4.5 6 -0.5
v -4.5 9 2.5
v -4.5 9 -1.5
v -4.5 10 1.5
v -4.5 10 -0.5
v -4.5 12 1.5
v -4.5 12 -0.5
v -4.5 13 2.5
v -4.5 13 -1.5
v -3.5 7 3.5
v -3.5 7 -3.5
v -3.5 9 2.5
v -3.5 9 -1.5
v -3.5 13 2.5
v -3.5 13 -1.5
v -3.5 14 3.5
v -3.5 14 -3.5
v -2.5 0 1.5
v -2.5 0 -1.5
v -2.5 1 1.5
v -2.5 1 0.5
v -2.5 1 -0.5
v -2.5 1 -1.5
v -2.5 4 0.5
v -2.5 4 -0.5
v -1.5 3 1.5
v -1.5 3 0.5
v -1.5 3 -0.5
v -1.5 3 -1.5
v -1.5 4 0.5
v -1.5 4 -0.5
v -1.5 5 0.5
v -1.5 5 -0.5
v -1.5 5 -1.5
v -1.5 5 -2.5
v -1.5 6 0.5
v -1.5 6 -0.5
v -1.5 7 1.5
v -1.5 7 -2.5
v 1.5 0 1.5
v 1.5 0 -1.5
v 1.5 1 1.5
v 1.5 1 0.5
v 1.5 1 -0.5
v 1.5 1 -1.5
v 1.5 3 0.5
v 1.5 3 -0.5
v 2.5 9 3.5
v 2.5 9 2.5
v 2.5 13 3.5
v 2.5 13 2.5
v 3.5 2 0.5
v 3.5 2 -0.5
v 3.5 3 0.5
v 3.5 3 -0.5
v 3.5 5 0.5
v 3.5 5 -0.5
v -3.5 2 0.5
v -3.5 2 -0.5
v -3.5 3 0.5
v -3.5 3 -0.5
v -3.5 5 0.5
v -3.5 5 -0.5
v -2.5 9 3.5
v -2.5 9 2.5
v -2.5 13 3.5
v -2.5 13 2.5
v -1.5 0 1.5
v -1.5 0 -1.5
v -1.5 1 1.5
v -1.5 1 0.5
v -1.5 1 -0.5
v -1.5 1 -1.5
v -1.5 3 0.5
v -1.5 3 -0.5
v 1.5 3 1.5
v 1.5 3 0.5
v 1.5 3 -0.5
v 1.5 3 -1.5
v 1.5 4 0.5
v 1.5 4 -0.5
v 1.5 5 0.5
v 1.5 5 -0.5
v 1.5 5 -1.5
v 1.5 5 -2.5
v 1.5 6 0.5
v 1.5 6 -0.5
v 1.5 7 1.5
v 1.5 7 -2.5
v 2.5 0 1.5
v 2.5 0 -1.5
v 2.5 1 1.5
v 2.5 1 0.5
v 2.5 1 -0.5
v 2.5 1 -1.5
v 2.5 4 0.5
v 2.5 4 -0.5
v 3.5 7 3.5
v 3.5 7 -3.5
v 3.5 9 2.5
v 3.5 9 -1.5
v 3.5 13 2.5
v 3.5 13 -1.5
v 3.5 14 3.5
v 3.5 14 -3.5
v 4.5 2 0.5
v 4.5 2 -0.5
v 4.5 3 0.5
v 4.5 3 -0.5
v 4.5 5 0.5
v 4.5 5 -0.5
v 4.5 6 0.5
v 4.5 6 -0.5
v 4.5 9 2.5
v 4.5 9 -1.5
v 4.5 10 1.5
v 4.5 10 -0.5
v 4.5 12 1.5
v 4.5 12 -0.5
v 4.5 13 2.5
v 4.5 13 -1.5
v -3.5 7 3.5
v -3.5 14 3.5
v -2.5 9 3.5
v -2.5 13 3.5
v -2.5 14 3.5
v -0.5 7 3.5
v -0.5 8 3.5
v -0.5 13 3.5
v -0.5 14 3.5
v 0.5 7 3.5
v 0.5 8 3.5
v 0.5 13 3.5
v 0.5 14 3.5
v 2.5 9 3.5
v 2.5 13 3.5
v 2.5 14 3.5
v 3.5 7 3.5
v 3.5 14 3.5
v -4.5 9 2.5
v -4.5 13 2.5
v -3.5 9 2.5
v -3.5 13 2.5
v -2.5 9 2.5
v -2.5 13 2.5
v -1.5 10 2.5
v -1.5 11 2.5
v -0.5 10 2.5
v -0.5 11 2.5
v -0.5 13 2.5
v 0.5 10 2.5
v 0.5 11 2.5
v 0.5 13 2.5
v 1.5 10 2.5
v 1.5 11 2.5
v 2.5 9 2.5
v 2.5 13 2.5
v 3.5 9 2.5
v 3.5 13 2.5
v 4.5 9 2.5
v 4.5 13 2.5
v -2.5 0 1.5
v -2.5 1 1.5
v -1.5 0 1.5
v -1.5 1 1.5
v -1.5 3 1.5
v -1.5 7 1.5
v -0.5 4 1.5
v -0.5 6 1.5
v -0.5 7 1.5
v 0.5 4 1.5
v 0.5 6 1.5
v 0.5 7 1.5
v 1.5 0 1.5
v 1.5 1 1.5
v 1.5 3 1.5
v 1.5 7 1.5
v 2.5 0 1.5
v 2.5 1 1.5
v -4.5 2 0.5
v -4.5 3 0.5
v -4.5 5 0.5
v -4.5 6 0.5
v -3.5 2 0.5
v -3.5 3 0.5
v -3.5 5 0.5
v -2.5 1 0.5
v -2.5 4 0.5
v -1.5 1 0.5
v -1.5 3 0.5
v -1.5 4 0.5
v -1.5 5 0.5
v -1.5 6 0.5
v 1.5 1 0.5
v 1.5 3 0.5
v 1.5 4 0.5
v 1.5 5 0.5
v 1.5 6 0.5
v 2.5 1 0.5
v 2.5 4 0.5
v 3.5 2 0.5
v 3.5 3 0.5
v 3.5 5 0.5
v 4.5 2 0.5
v 4.5 3 0.5
v 4.5 5 0.5
v 4.5 6 0.5
v -4.5 2 -0.5
v -4.5 3 -0.5
v -4.5 5 -0.5
v -4.5 6 -0.5
v -3.5 2 -0.5
v -3.5 3 -0.5
v -3.5 5 -0.5
v -2.5 1 -0.5
v -2.5 4 -0.5
v -1.5 1 -0.5
v -1.5 3 -0.5
v -1.5 4 -0.5
v -1.5 5 -0.5
v -1.5 6 -0.5
v 1.5 1 -0.5
v 1.5 3 -0.5
v 1.5 4 -0.5
v 1.5 5 -0.5
v 1.5 6 -0.5
v 2.5 1 -0.5
v 2.5 4 -0.5
v 3.5 2 -0.5
v 3.5 3 -0.5
v 3.5 5 -0.5
v 4.5 2 -0.5
v 4.5 3 -0.5
v 4.5 5 -0.5
v 4.5 6 -0.5
v -4.5 9 -1.5
v -4.5 13 -1.5
v -3.5 9 -1.5
v -3.5 13 -1.5
v -2.5 0 -1.5
v -2.5 1 -1.5
v -1.5 0 -1.5
v -1.5 1 -1.5
v -1.5 3 -1.5
v -1.5 5 -1.5
v 1.5 0 -1.5
v 1.5 1 -1.5
v 1.5 3 -1.5
v 1.5 5 -1.5
v 2.5 0 -1.5
v 2.5 1 -1.5
v 3.5 9 -1.5
v 3.5 13 -1.5
v 4.5 9 -1.5
v 4.5 13 -1.5
v -1.5 5 -2.5
v -1.5 7 -2.5
v -0.5 7 -2.5
v 0.5 7 -2.5
v 1.5 5 -2.5
v 1.5 7 -2.5
v -3.5 7 -3.5
v -3.5 14 -3.5
v -2.5 7 -3.5
v -2.5 14 -3.5
v -1.5 8 -3.5
v -1.5 9 -3.5
v -1.5 10 -3.5
v -1.5 11 -3.5
v -1.5 12 -3.5
v -1.5 13 -3.5
v -0.5 7 -3.5
v -0.5 8 -3.5
v -0.5 9 -3.5
v -0.5 10 -3.5
v -0.5 11 -3.5
v -0.5 12 -3.5
v -0.5 13 -3.5
v -0.5 14 -3.5
v 0.5 7 -3.5
v 0.5 8 -3.5
v 0.5 9 -3.5
v 0.5 10 -3.5
v 0.5 11 -3.5
v 0.5 12 -3.5
v 0.5 13 -3.5
v 0.5 14 -3.5
v 1.5 8 -3.5
v 1.5 9 -3.5
v 1.5 10 -3.5
v 1.5 11 -3.5
v 1.5 12 -3.5
v 1.5 13 -3.5
v 2.5 7 -3.5
v 2.5 14 -3.5
v 3.5 7 -3.5
v 3.5 14 -3.5
v -2.5 0 1.5
v -1.5 0 1.5
v 1.5 0 1.5
v 2.5 0 1.5
v -2.5 0 -1.5
v -1.5 0 -1.5
v 1.5 0 -1.5
v 2.5 0 -1.5
v -4.5 2 0.5
v -3.5 2 0.5
v 3.5 2 0.5
v 4.5 2 0.5
v -4.5 2 -0.5
v -3.5 2 -0.5
v 3.5 2 -0.5
v 4.5 2 -0.5
v -1.5 3 1.5
v 1.5 3 1.5
v -1.5 3 0.5
v 1.5 3 0.5
v -1.5 3 -0.5
v 1.5 3 -0.5
v -1.5 3 -1.5
v 1.5 3 -1.5
v -3.5 5 0.5
v -1.5 5 0.5
v 1.5 5 0.5
v 3.5 5 0.5
v -3.5 5 -0.5
v -1.5 5 -0.5
v 1.5 5 -0.5
v 3.5 5 -0.5
v -1.5 5 -1.5
v 1.5 5 -1.5
v -1.5 5 -2.5
v 1.5 5 -2.5
v -3.5 7 3.5
v -0.5 7 3.5
v 0.5 7 3.5
v 3.5 7 3.5
v -2.5 7 2.5
v -0.5 7 2.5
v 0.5 7 2.5
v 2.5 7 2.5
v -1.5 7 1.5
v -0.5 7 1.5
v 0.5 7 1.5
v 1.5 7 1.5
v -1.5 7 -2.5
v -0.5 7 -2.5
v 0.5 7 -2.5
v 1.5 7 -2.5
v -3.5 7 -3.5
v -2.5 7 -3.5
v -0.5 7 -3.5
v 0.5 7 -3.5
v 2.5 7 -3.5
v 3.5 7 -3.5
v -4.5 9 2.5
v -3.5 9 2.5
v 3.5 9 2.5
v 4.5 9 2.5
v -4.5 9 -1.5
v -3.5 9 -1.5
v 3.5 9 -1.5
v 4.5 9 -1.5
v -2.5 13 3.5
v -0.5 13 3.5
v 0.5 13 3.5
v 2.5 13 3.5
v -2.5 13 2.5
v -0.5 13 2.5
v 0.5 13 2.5
v 2.5 13 2.5
v -2.5 1 1.5
v -1.5 1 1.5
v 1.5 1 1.5
v 2.5 1 1.5
v -2.5 1 0.5
v -1.5 1 0.5
v 1.5 1 0.5
v 2.5 1 0.5
v -2.5 1 -0.5
v -1.5 1 -0.5
v 1.5 1 -0.5
v 2.5 1 -0.5
v -2.5 1 -1.5
v -1.5 1 -1.5
v 1.5 1 -1.5
v 2.5 1 -1.5
v -2.5 4 0.5
v -1.5 4 0.5
v 1.5 4 0.5
v 2.5 4 0.5
v -2.5 4 -0.5
v -1.5 4 -0.5
v 1.5 4 -0.5
v 2.5 4 -0.5
v -4.5 6 0.5
v -1.5 6 0.5
v 1.5 6 0.5
v 4.5 6 0.5
v -4.5 6 -0.5
v -1.5 6 -0.5
v 1.5 6 -0.5
v 4.5 6 -0.5
v -2.5 9 3.5
v 2.5 9 3.5
v -2.5 9 2.5
v 2.5 9 2.5
v -4.5 13 2.5
v -3.5 13 2.5
v 3.5 13 2.5
v 4.5 13 2.5
v -4.5 13 -1.5
v -3.5 13 -1.5
v 3.5 13 -1.5
v 4.5 13 -1.5
v -3.5 14 3.5
v -2.5 14 3.5
v -0.5 14 3.5
v 0.5 14 3.5
v 2.5 14 3.5
v 3.5 14 3.5
v -3.5 14 -3.5
v -2.5 14 -3.5
v -0.5 14 -3.5
v 0.5 14 -3.5
v 2.5 14 -3.5
v 3.5 14 -3.5

# faces
f 3/1/1 2/1/1 1/1/1
f 4/1/1 2/1/1 3/1/1
f 5/4/1 4/4/1 3/4/1
f 6/4/1 4/4/1 5/4/1
f 7/1/1 6/1/1 5/1/1
f 8/1/1 6/1/1 7/1/1
f 11/1/1 10/1/1 9/1/1
f 12/1/1 10/1/1 11/1/1
f 13/1/1 11/1/1 9/1/1
f 13/3/1 12/3/1 11/3/1
f 14/1/1 10/1/1 12/1/1
f 14/3/1 12/3/1 13/3/1
f 15/1/1 13/1/1 9/1/1
f 15/1/1 14/1/1 13/1/1
f 16/1/1 10/1/1 14/1/1
f 16/1/1 14/1/1 15/1/1
f 19/1/1 18/1/1 17/1/1
f 20/1/1 18/1/1 19/1/1
f 21/1/1 19/1/1 17/1/1
f 22/1/1 18/1/1 20/1/1
f 23/1/1 21/1/1 17/1/1
f 23/1/1 22/1/1 21/1/1
f 24/1/1 18/1/1 22/1/1
f 24/1/1 22/1/1 23/1/1
f 27/1/1 26/1/1 25/1/1
f 28/1/1 26/1/1 27/1/1
f 29/1/1 26/1/1 28/1/1
f 30/1/1 26/1/1 29/1/1
f 31/1/1 29/1/1 28/1/1
f 32/1/1 29/1/1 31/1/1
f 37/1/1 34/1/1 33/1/1
f 38/1/1 36/1/1 35/1/1
f 39/1/1 37/1/1 33/1/1
f 39/1/1 38/1/1 37/1/1
f 40/1/1 36/1/1 38/1/1
f 40/1/1 38/1/1 39/1/1
f 41/1/1 36/1/1 40/1/1
f 43/1/1 39/1/1 33/1/1
f 44/1/1 42/1/1 41/1/1
f 44/1/1 41/1/1 40/1/1
f 45/1/1 43/1/1 33/1/1
f 45/1/1 44/1/1 43/1/1
f 46/1/1 42/1/1 44/1/1
f 46/1/1 44/1/1 45/1/1
f 49/1/1 48/1/1 47/1/1
f 50/1/1 48/1/1 49/1/1
f 51/1/1 48/1/1 50/1/1
f 52/1/1 48/1/1 51/1/1
f 53/1/1 51/1/1 50/1/1
f 54/1/1 51/1/1 53/1/1
f 57/1/1 56/1/1 55/1/1
f 58/1/1 56/1/1 57/1/1
f 61/1/1 60/1/1 59/1/1
f 62/1/1 60/1/1 61/1/1
f 63/4/1 62/4/1 61/4/1
f 64/4/1 62/4/1 63/4/1
f 65/1/2 66/1/2 67/1/2
f 67/1/2 66/1/2 68/1/2
f 67/4/2 68/4/2 69/4/2
f 69/4/2 68/4/2 70/4/2
f 71/1/2 72/1/2 73/1/2
f 73/1/2 72/1/2 74/1/2
f 75/1/2 76/1/2 77/1/2
f 77/1/2 76/1/2 78/1/2
f 78/1/2 76/1/2 79/1/2
f 79/1/2 76/1/2 80/1/2
f 78/1/2 79/1/2 81/1/2
f 81/1/2 79/1/2 82/1/2
f 83/1/2 84/1/2 87/1/2
f 85/1/2 86/1/2 88/1/2
f 83/1/2 87/1/2 89/1/2
f 87/1/2 88/1/2 89/1/2
f 88/1/2 86/1/2 90/1/2
f 89/1/2 88/1/2 90/1/2
f 90/1/2 86/1/2 91/1/2
f 83/1/2 89/1/2 93/1/2
f 91/1/2 92/1/2 94/1/2
f 90/1/2 91/1/2 94/1/2
f 83/1/2 93/1/2 95/1/2
f 93/1/2 94/1/2 95/1/2
f 94/1/2 92/1/2 96/1/2
f 95/1/2 94/1/2 96/1/2
f 97/1/2 98/1/2 99/1/2
f 99/1/2 98/1/2 100/1/2
f 100/1/2 98/1/2 101/1/2
f 101/1/2 98/1/2 102/1/2
f 100/1/2 101/1/2 103/1/2
f 103/1/2 101/1/2 104/1/2
f 105/1/2 106/1/2 107/1/2
f 107/1/2 106/1/2 108/1/2
f 105/1/2 107/1/2 109/1/2
f 108/1/2 106/1/2 110/1/2
f 105/1/2 109/1/2 111/1/2
f 109/1/2 110/1/2 111/1/2
f 110/1/2 106/1/2 112/1/2
f 111/1/2 110/1/2 112/1/2
f 113/1/2 114/1/2 115/1/2
f 115/1/2 114/1/2 116/1/2
f 115/4/2 116/4/2 117/4/2
f 117/4/2 116/4/2 118/4/2
f 117/1/2 118/1/2 119/1/2
f 119/1/2 118/1/2 120/1/2
f 121/1/2 122/1/2 123/1/2
f 123/1/2 122/1/2 124/1/2
f 121/1/2 123/1/2 125/1/2
f 123/3/2 124/3/2 125/3/2
f 124/1/2 122/1/2 126/1/2
f 125/3/2 124/3/2 126/3/2
f 121/1/2 125/1/2 127/1/2
f 125/1/2 126/1/2 127/1/2
f 126/1/2 122/1/2 128/1/2
f 127/1/2 126/1/2 128/1/2
f 131/1/3 130/1/3 129/1/3
f 132/1/3 130/1/3 131/1/3
f 133/1/3 130/1/3 132/1/3
f 134/1/3 131/1/3 129/1/3
f 135/1/3 131/1/3 134/1/3
f 136/4/3 133/4/3 132/4/3
f 137/4/3 133/4/3 136/4/3
f 138/2/3 135/2/3 134/2/3
f 139/1/3 131/1/3 135/1/3
f 139/2/3 135/2/3 138/2/3
f 140/1/3 137/1/3 136/1/3
f 141/1/3 137/1/3 140/1/3
f 142/1/3 131/1/3 139/1/3
f 142/1/3 139/1/3 138/1/3
f 143/4/3 141/4/3 140/4/3
f 144/4/3 141/4/3 143/4/3
f 145/1/3 142/1/3 138/1/3
f 145/1/3 143/1/3 142/1/3
f 145/1/3 144/1/3 143/1/3
f 146/1/3 144/1/3 145/1/3
f 149/1/3 148/1/3 147/1/3
f 150/1/3 148/1/3 149/1/3
f 153/2/3 152/2/3 151/2/3
f 154/2/3 152/2/3 153/2/3
f 155/2/3 153/2/3 151/2/3
f 155/3/3 154/3/3 153/3/3
f 156/2/3 152/2/3 154/2/3
f 156/3/3 154/3/3 155/3/3
f 157/2/3 152/2/3 156/2/3
f 158/2/3 155/2/3 151/2/3
f 158/2/3 156/2/3 155/2/3
f 158/2/3 157/2/3 156/2/3
f 159/2/3 157/2/3 158/2/3
f 160/2/3 157/2/3 159/2/3
f 161/2/3 158/2/3 151/2/3
f 161/3/3 159/3/3 158/3/3
f 162/2/3 160/2/3 159/2/3
f 162/3/3 159/3/3 161/3/3
f 163/2/3 161/2/3 151/2/3
f 163/2/3 162/2/3 161/2/3
f 164/2/3 160/2/3 162/2/3
f 164/2/3 162/2/3 163/2/3
f 167/1/3 166/1/3 165/1/3
f 168/1/3 166/1/3 167/1/3
f 171/1/3 170/1/3 169/1/3
f 172/1/3 170/1/3 171/1/3
f 175/1/3 174/1/3 173/1/3
f 176/1/3 174/1/3 175/1/3
f 177/1/3 174/1/3 176/1/3
f 178/1/3 175/1/3 173/1/3
f 178/4/3 176/4/3 175/4/3
f 179/1/3 177/1/3 176/1/3
f 179/4/3 176/4/3 178/4/3
f 180/1/3 177/1/3 179/1/3
f 183/1/3 178/1/3 173/1/3
f 183/1/3 179/1/3 178/1/3
f 183/1/3 180/1/3 179/1/3
f 184/1/3 180/1/3 183/1/3
f 185/1/3 182/1/3 181/1/3
f 186/1/3 182/1/3 185/1/3
f 191/1/3 188/1/3 187/1/3
f 192/4/3 189/4/3 188/4/3
f 192/1/3 188/1/3 191/1/3
f 193/1/3 190/1/3 189/1/3
f 193/4/3 189/4/3 192/4/3
f 196/1/3 195/1/3 194/1/3
f 197/1/3 195/1/3 196/1/3
f 198/1/3 195/1/3 197/1/3
f 199/1/3 190/1/3 193/1/3
f 200/1/3 190/1/3 199/1/3
f 206/1/3 202/1/3 201/1/3
f 206/1/3 203/1/3 202/1/3
f 207/1/3 203/1/3 206/1/3
f 210/1/3 205/1/3 204/1/3
f 211/1/3 209/1/3 208/1/3
f 212/4/3 210/4/3 209/4/3
f 212/1/3 209/1/3 211/1/3
f 213/1/3 205/1/3 210/1/3
f 213/4/3 210/4/3 212/4/3
f 214/1/3 205/1/3 213/1/3
f 215/1/4 216/1/4 219/1/4
f 216/4/4 217/4/4 220/4/4
f 219/1/4 216/1/4 220/1/4
f 217/1/4 218/1/4 221/1/4
f 220/4/4 217/4/4 221/4/4
f 222/1/4 223/1/4 224/1/4
f 224/1/4 223/1/4 225/1/4
f 225/1/4 223/1/4 226/1/4
f 221/1/4 218/1/4 227/1/4
f 227/1/4 218/1/4 228/1/4
f 229/1/4 230/1/4 234/1/4
f 230/1/4 231/1/4 234/1/4
f 234/1/4 231/1/4 235/1/4
f 232/1/4 233/1/4 238/1/4
f 236/1/4 237/1/4 239/1/4
f 237/4/4 238/4/4 240/4/4
f 239/1/4 237/1/4 240/1/4
f 238/1/4 233/1/4 241/1/4
f 240/4/4 238/4/4 241/4/4
f 241/1/4 233/1/4 242/1/4
f 243/1/4 244/1/4 245/1/4
f 245/1/4 244/1/4 246/1/4
f 247/1/4 248/1/4 249/1/4
f 249/1/4 248/1/4 250/1/4
f 251/1/4 252/1/4 255/1/4
f 255/1/4 252/1/4 256/1/4
f 253/1/4 254/1/4 257/1/4
f 257/1/4 254/1/4 258/1/4
f 259/1/4 260/1/4 261/1/4
f 261/1/4 260/1/4 262/1/4
f 263/1/4 264/1/4 265/1/4
f 263/1/4 265/1/4 266/1/4
f 263/1/4 266/1/4 267/1/4
f 267/1/4 266/1/4 268/1/4
f 269/1/4 270/1/4 271/1/4
f 271/1/4 270/1/4 272/1/4
f 271/4/4 272/4/4 273/4/4
f 273/4/4 272/4/4 274/4/4
f 274/4/4 272/4/4 275/4/4
f 275/4/4 272/4/4 276/4/4
f 276/4/4 272/4/4 277/4/4
f 277/4/4 272/4/4 278/4/4
f 271/4/4 273/4/4 279/4/4
f 273/2/4 274/2/4 280/2/4
f 279/4/4 273/4/4 280/4/4
f 274/4/4 275/4/4 281/4/4
f 280/2/4 274/2/4 281/2/4
f 275/2/4 276/2/4 282/2/4
f 281/4/4 275/4/4 282/4/4
f 276/4/4 277/4/4 283/4/4
f 282/2/4 276/2/4 283/2/4
f 277/2/4 278/2/4 284/2/4
f 283/4/4 277/4/4 284/4/4
f 278/4/4 272/4/4 285/4/4
f 284/2/4 278/2/4 285/2/4
f 285/4/4 272/4/4 286/4/4
f 279/1/4 280/1/4 287/1/4
f 280/2/4 281/2/4 288/2/4
f 287/1/4 280/1/4 288/1/4
f 281/1/4 282/1/4 289/1/4
f 288/2/4 281/2/4 289/2/4
f 282/2/4 283/2/4 290/2/4
f 289/1/4 282/1/4 290/1/4
f 283/1/4 284/1/4 291/1/4
f 290/2/4 283/2/4 291/2/4
f 284/2/4 285/2/4 292/2/4
f 291/1/4 284/1/4 292/1/4
f 285/1/4 286/1/4 293/1/4
f 292/2/4 285/2/4 293/2/4
f 293/1/4 286/1/4 294/1/4
f 287/4/4 288/4/4 295/4/4
f 288/2/4 289/2/4 295/2/4
f 289/4/4 290/4/4 296/4/4
f 295/2/4 289/2/4 296/2/4
f 290/2/4 291/2/4 297/2/4
f 296/4/4 290/4/4 297/4/4
f 291/4/4 292/4/4 298/4/4
f 297/2/4 291/2/4 298/2/4
f 292/2/4 293/2/4 299/2/4
f 298/4/4 292/4/4 299/4/4
f 293/4/4 294/4/4 300/4/4
f 299/2/4 293/2/4 300/2/4
f 287/4/4 295/4/4 301/4/4
f 298/4/4 299/4/4 301/4/4
f 299/4/4 300/4/4 301/4/4
f 297/4/4 298/4/4 301/4/4
f 296/4/4 297/4/4 301/4/4
f 295/4/4 296/4/4 301/4/4
f 300/4/4 294/4/4 302/4/4
f 301/4/4 300/4/4 302/4/4
f 301/1/4 302/1/4 303/1/4
f 303/1/4 302/1/4 304/1/4
f 309/1/5 306/1/5 305/1/5
f 310/1/5 306/1/5 309/1/5
f 311/1/5 308/1/5 307/1/5
f 312/1/5 308/1/5 311/1/5
f 317/1/5 314/1/5 313/1/5
f 318/1/5 314/1/5 317/1/5
f 319/1/5 316/1/5 315/1/5
f 320/1/5 316/1/5 319/1/5
f 323/1/5 322/1/5 321/1/5
f 324/1/5 322/1/5 323/1/5
f 325/1/5 324/1/5 323/1/5
f 326/1/5 324/1/5 325/1/5
f 327/1/5 326/1/5 325/1/5
f 328/1/5 326/1/5 327/1/5
f 333/1/5 330/1/5 329/1/5
f 334/1/5 330/1/5 333/1/5
f 335/1/5 332/1/5 331/1/5
f 336/1/5 332/1/5 335/1/5
f 339/1/5 338/1/5 337/1/5
f 340/1/5 338/1/5 339/1/5
f 345/1/5 342/1/5 341/1/5
f 346/2/5 343/2/5 342/2/5
f 346/1/5 342/1/5 345/1/5
f 347/1/5 344/1/5 343/1/5
f 347/2/5 343/2/5 346/2/5
f 348/1/5 344/1/5 347/1/5
f 349/4/5 346/4/5 345/4/5
f 350/1/5 347/1/5 346/1/5
f 350/4/5 346/4/5 349/4/5
f 351/4/5 348/4/5 347/4/5
f 351/1/5 347/1/5 350/1/5
f 352/4/5 348/4/5 351/4/5
f 353/4/5 349/4/5 345/4/5
f 356/4/5 348/4/5 352/4/5
f 357/1/5 345/1/5 341/1/5
f 358/4/5 353/4/5 345/4/5
f 358/1/5 345/1/5 357/1/5
f 358/4/5 354/4/5 353/4/5
f 359/1/5 355/1/5 354/1/5
f 359/4/5 354/4/5 358/4/5
f 360/4/5 356/4/5 355/4/5
f 360/1/5 355/1/5 359/1/5
f 361/1/5 344/1/5 348/1/5
f 361/4/5 356/4/5 360/4/5
f 361/4/5 348/4/5 356/4/5
f 362/1/5 344/1/5 361/1/5
f 367/1/5 364/1/5 363/1/5
f 368/1/5 364/1/5 367/1/5
f 369/1/5 366/1/5 365/1/5
f 370/1/5 366/1/5 369/1/5
f 375/4/5 372/4/5 371/4/5
f 376/1/5 373/1/5 372/1/5
f 376/4/5 372/4/5 375/4/5
f 377/4/5 374/4/5 373/4/5
f 377/1/5 373/1/5 376/1/5
f 378/4/5 374/4/5 377/4/5
f 379/1/6 380/1/6 383/1/6
f 383/1/6 380/1/6 384/1/6
f 381/1/6 382/1/6 385/1/6
f 385/1/6 382/1/6 386/1/6
f 387/1/6 388/1/6 391/1/6
f 391/1/6 388/1/6 392/1/6
f 389/1/6 390/1/6 393/1/6
f 393/1/6 390/1/6 394/1/6
f 395/1/6 396/1/6 399/1/6
f 399/1/6 396/1/6 400/1/6
f 397/1/6 398/1/6 401/1/6
f 401/1/6 398/1/6 402/1/6
f 403/1/6 404/1/6 407/1/6
f 407/1/6 404/1/6 408/1/6
f 405/1/6 406/1/6 409/1/6
f 409/1/6 406/1/6 410/1/6
f 411/1/6 412/1/6 413/1/6
f 413/1/6 412/1/6 414/1/6
f 415/1/6 416/1/6 419/1/6
f 419/1/6 416/1/6 420/1/6
f 417/1/6 418/1/6 421/1/6
f 421/1/6 418/1/6 422/1/6
f 423/1/6 424/1/6 429/1/6
f 424/4/6 425/4/6 430/4/6
f 429/1/6 424/1/6 430/1/6
f 425/1/6 426/1/6 431/1/6
f 430/4/6 425/4/6 431/4/6
f 426/4/6 427/4/6 432/4/6
f 431/1/6 426/1/6 432/1/6
f 427/1/6 428/1/6 433/1/6
f 432/4/6 427/4/6 433/4/6
f 433/1/6 428/1/6 434/1/6
